<svg xmlns="http://www.w3.org/2000/svg" data-name="лой 2" viewBox="0 0 133.02 70.5"><g data-name="лой 1-2"><path d="M28.12 52.7a10.13 10.13 0 0 1-7.8-9.8c.1-4.5 3.3-8.5 6.4-9.1.3-.1 2-.2 5.3-.4 2.2-.2 2.7-.2 3.3-.5 1.1-.6 2.5-2 4-5.3 1.8-4 2-3.8 2.5-4.1a4 4 0 0 1 3.8-.2c1.8.5 2 1.2 3.5 1.8a8.28 8.28 0 0 0 5.8-.3c4-1.2 25.6-7.2 55.2-15.7a5.9 5.9 0 0 1 3.7-.7 6.46 6.46 0 0 1 4.4 3.3l4.8.4v-3l-4.2-4.6V2.7l-12.3 3.6a6.41 6.41 0 0 1-2.5 2.1 7 7 0 0 1-1.9.6l-46.6 12.8c-1 .2-2.4.4-3.1-.4-.5-.6-.3-1.4 0-4s.5-4.1.2-4.8a5.72 5.72 0 0 0-4.2-3c-1.5-.3-3 0-6.1 1.8-5.7 3.3-5.4 5.2-8.8 6.5-2.7 1-5.4.6-10.7-.3s-5.8-2-9.5-2c-2.2 0-5.9 0-8.9 2.4s-3.7 6-4.1 7.9c-2.6 13.5 11.4 24.9 12.8 25.9 3.5 2.8 6 3.5 8.2 3.5a13.84 13.84 0 0 0 6.8-2.6Z"/><circle cx="110.22" cy="4" r="1.3"/><circle cx="114.32" cy="2.6" r="1.3"/><circle cx="118.42" cy="1.3" r="1.3"/><path d="M38.12 43.4h5.5v6a8.69 8.69 0 0 1-2.6 1.6 8.53 8.53 0 0 1-3.1.6 9.43 9.43 0 0 1-3-.5 8 8 0 0 1-2.1-1.5 5.53 5.53 0 0 1-1.3-2.4 10.55 10.55 0 0 1-.4-3.1 7.77 7.77 0 0 1 .5-3.1 9.21 9.21 0 0 1 1.3-2.4 5.11 5.11 0 0 1 2.1-1.5 7.63 7.63 0 0 1 2.7-.5 8.75 8.75 0 0 1 2.4.3 4.61 4.61 0 0 1 1.7.9 4.86 4.86 0 0 1 1.1 1.4 4.92 4.92 0 0 1 .6 1.7l-3 .4c-.1-.4-.2-.7-.3-1a1.79 1.79 0 0 0-.5-.7 2 2 0 0 0-.8-.4 3.73 3.73 0 0 0-1.2-.2 2.82 2.82 0 0 0-2.6 1.3 6.53 6.53 0 0 0-.9 3.7 6.53 6.53 0 0 0 .9 3.7 3.06 3.06 0 0 0 2.8 1.3 7 7 0 0 0 1.6-.2 3.1 3.1 0 0 0 1.3-.6v-2.4h-2.7ZM46.82 36.9h3v8.5a4.91 4.91 0 0 0 .6 2.7 2.9 2.9 0 0 0 4.2 0 4.91 4.91 0 0 0 .6-2.7v-8.5h3v8.5a7.89 7.89 0 0 1-.4 2.8 6.79 6.79 0 0 1-1.1 1.9 4.18 4.18 0 0 1-1.8 1.1 8.75 8.75 0 0 1-2.4.3 6.05 6.05 0 0 1-2.4-.4 5.44 5.44 0 0 1-1.8-1.1 4 4 0 0 1-1.1-1.9 11.08 11.08 0 0 1-.4-2.8ZM61.92 36.9h3v14.3h-3ZM72.12 39.5h-4.3v-2.6h11.6v2.6h-4.3v11.7h-3ZM84.52 36.9h2.8l5.4 14.3h-3.2l-1.1-3.3h-5l-1.1 3.3h-3.1Zm3.1 8.5-1.7-5.1-1.7 5.1ZM95.32 36.9h5.1a7.89 7.89 0 0 1 2.8.4 5.45 5.45 0 0 1 1.7 1 4.19 4.19 0 0 1 .9 1.4 3.89 3.89 0 0 1 .2 1.5 5.21 5.21 0 0 1-.5 2.3 3.79 3.79 0 0 1-1.7 1.6l2.9 6.1h-3.2l-2.4-5.4h-2.8v5.4h-2.9l-.1-14.3Zm5.3 6.4a2.34 2.34 0 0 0 1.2-.2c.3-.1.6-.2.7-.4a1.61 1.61 0 0 0 .4-.7 2.2 2.2 0 0 0 .1-.8 1.48 1.48 0 0 0-.1-.7 2.09 2.09 0 0 0-.4-.6 2 2 0 0 0-.8-.4 4.44 4.44 0 0 0-1.3-.2h-2.1v4ZM49.42 66a3.64 3.64 0 0 0 1.2 2.2 5.22 5.22 0 0 0 2.8.7 7 7 0 0 0 1.6-.2 1.7 1.7 0 0 0 1-.6 1.37 1.37 0 0 0 .5-.8 3 3 0 0 0 .2-1 2 2 0 0 0-.1-.8 1.61 1.61 0 0 0-.4-.7 5.55 5.55 0 0 0-.8-.6 4 4 0 0 0-1.3-.4l-1.8-.3a10.55 10.55 0 0 1-1.9-.5 4.68 4.68 0 0 1-1.4-.8 2.73 2.73 0 0 1-.9-1.2 4.31 4.31 0 0 1-.3-1.7 3.06 3.06 0 0 1 .4-1.7 3.18 3.18 0 0 1 1.1-1.2 4.36 4.36 0 0 1 1.7-.7 13.61 13.61 0 0 1 2.1-.2 8.26 8.26 0 0 1 2.4.3 4.2 4.2 0 0 1 1.5.8 2.73 2.73 0 0 1 .9 1.2 7.84 7.84 0 0 1 .5 1.4l-1.7.3a3.58 3.58 0 0 0-.4-1.1 2.7 2.7 0 0 0-.7-.8 3.13 3.13 0 0 0-1-.5 5.72 5.72 0 0 0-1.4-.1 6.27 6.27 0 0 0-1.6.2 3.7 3.7 0 0 0-1.1.5 1.87 1.87 0 0 0-.6.7 2.39 2.39 0 0 0-.2.9 2.11 2.11 0 0 0 .5 1.6 5.58 5.58 0 0 0 .8.5 4.22 4.22 0 0 0 1.2.3l2 .4a6.33 6.33 0 0 1 3.3 1.4 3.8 3.8 0 0 1 1 2.9 4.15 4.15 0 0 1-.3 1.6 3.05 3.05 0 0 1-1 1.3 5.07 5.07 0 0 1-1.6.9 7.55 7.55 0 0 1-2.3.3 8 8 0 0 1-2.3-.3 4.94 4.94 0 0 1-1.8-.8 4.07 4.07 0 0 1-1.2-1.4 5.87 5.87 0 0 1-.6-2ZM73.52 65.3a11.7 11.7 0 0 1-.5 2 4.57 4.57 0 0 1-1.1 1.6 7.84 7.84 0 0 1-1.8 1.1 6.05 6.05 0 0 1-2.4.4 7.63 7.63 0 0 1-2.7-.5 4.26 4.26 0 0 1-2-1.5 8.58 8.58 0 0 1-1.3-2.3 10.49 10.49 0 0 1 0-6.4 9.21 9.21 0 0 1 1.3-2.4 5.85 5.85 0 0 1 2-1.5 7 7 0 0 1 2.5-.5 8 8 0 0 1 2.3.3 2.94 2.94 0 0 1 1.6 1 8.28 8.28 0 0 1 1.1 1.5 6 6 0 0 1 .6 1.9l-1.8.3a5.78 5.78 0 0 0-.5-1.4 3 3 0 0 0-1.8-1.8c-.4-.2-.7-.1-1.3-.1a3.82 3.82 0 0 0-3.3 1.6 4.8 4.8 0 0 0-.9 1.9 9.28 9.28 0 0 0-.3 2.4 8.75 8.75 0 0 0 .3 2.4 6.63 6.63 0 0 0 .9 1.9 3.82 3.82 0 0 0 3.3 1.6 4.31 4.31 0 0 0 1.7-.3 3 3 0 0 0 1.1-.7 4.13 4.13 0 0 0 .7-1.1 5.73 5.73 0 0 0 .4-1.4ZM76.82 55.8h1.8v6h7.2v-6h1.8V70h-1.8v-6.5h-7.2V70h-1.8ZM97.72 70.4a7.63 7.63 0 0 1-2.7-.5 6 6 0 0 1-2.1-1.4 5.76 5.76 0 0 1-1.3-2.3 10.49 10.49 0 0 1 0-6.4 7.22 7.22 0 0 1 1.4-2.4 6.23 6.23 0 0 1 2.1-1.5 5.92 5.92 0 0 1 2.7-.5 7.63 7.63 0 0 1 2.7.5 6 6 0 0 1 2.1 1.4 5.76 5.76 0 0 1 1.3 2.3 10.49 10.49 0 0 1 0 6.4 9.21 9.21 0 0 1-1.3 2.4 5.38 5.38 0 0 1-2.1 1.5 6.36 6.36 0 0 1-2.8.5Zm0-1.6a4.21 4.21 0 0 0 2-.4 3.33 3.33 0 0 0 1.4-1.2 6.73 6.73 0 0 0 .9-1.9 9.28 9.28 0 0 0 .3-2.4 8.75 8.75 0 0 0-.3-2.4 6.63 6.63 0 0 0-.9-1.9 3.92 3.92 0 0 0-1.4-1.2 5.2 5.2 0 0 0-4 0 4.43 4.43 0 0 0-1.5 1.2 4.8 4.8 0 0 0-.9 1.9 9.75 9.75 0 0 0 0 4.8 6.63 6.63 0 0 0 .9 1.9 3.92 3.92 0 0 0 1.4 1.2 4.38 4.38 0 0 0 2.1.4ZM113.82 70.4a7.63 7.63 0 0 1-2.7-.5 6 6 0 0 1-2.1-1.4 5.76 5.76 0 0 1-1.3-2.3 10.49 10.49 0 0 1 0-6.4 7.22 7.22 0 0 1 1.4-2.4 6.23 6.23 0 0 1 2.1-1.5 5.92 5.92 0 0 1 2.7-.5 7.63 7.63 0 0 1 2.7.5 6 6 0 0 1 2.1 1.4 5.76 5.76 0 0 1 1.3 2.3 10.49 10.49 0 0 1 0 6.4 9.21 9.21 0 0 1-1.3 2.4 5.38 5.38 0 0 1-2.1 1.5 6.36 6.36 0 0 1-2.8.5Zm0-1.6a4.21 4.21 0 0 0 2-.4 3.33 3.33 0 0 0 1.4-1.2 6.73 6.73 0 0 0 .9-1.9 9.28 9.28 0 0 0 .3-2.4 8.75 8.75 0 0 0-.3-2.4 6.63 6.63 0 0 0-.9-1.9 3.92 3.92 0 0 0-1.4-1.2 4 4 0 0 0-2-.4 4.21 4.21 0 0 0-2 .4 4.43 4.43 0 0 0-1.5 1.2 4.8 4.8 0 0 0-.9 1.9 9.28 9.28 0 0 0-.3 2.4 8.75 8.75 0 0 0 .3 2.4 6.63 6.63 0 0 0 .9 1.9 3.92 3.92 0 0 0 1.4 1.2 4.38 4.38 0 0 0 2.1.4ZM123.82 55.8h1.8v12.6h7.4l-.3 1.6h-9c.1 0 .1-14.2.1-14.2Z"/></g></svg>